<svg
	class="shrink-0 relative overflow-visible"
	style=""
	width="16"
	height="16"
	viewBox="0 0 28 28"
	fill="none"
	xmlns="http://www.w3.org/2000/svg"
>
	<path
		d="M14 15.1667V2.33334L23.3333 7.00001L14 11.6667M23.9749 11.9349C24.5958 13.8484 24.6538 15.9 24.1423 17.8456C23.6307 19.7911 22.571 21.5488 21.0892 22.9094C19.6075 24.27 17.7661 25.1764 15.784 25.5206C13.802 25.8648 11.7628 25.6324 9.90907 24.851C8.05533 24.0696 6.46507 22.7722 5.32749 21.113C4.18991 19.4538 3.55289 17.5028 3.49223 15.492C3.43157 13.4812 3.94982 11.4954 4.98532 9.77064C6.02082 8.04593 7.52998 6.65497 9.33325 5.76328M9.33326 11.6667C8.74865 12.4449 8.36805 13.357 8.22614 14.3199C8.08423 15.2828 8.18553 16.2659 8.52079 17.1797C8.85606 18.0935 9.41464 18.9088 10.1456 19.5514C10.8766 20.1941 11.7568 20.6436 12.706 20.859C13.6552 21.0745 14.6432 21.049 15.58 20.7849C16.5168 20.5208 17.3726 20.0264 18.0695 19.3469C18.7664 18.6674 19.2822 17.8244 19.5698 16.8945C19.8575 15.9647 19.908 14.9777 19.7166 14.0233"
		stroke="white"
		stroke-width="2"
		stroke-linecap="round"
		stroke-linejoin="round"
	/>
</svg>